<?xml version="1.0" encoding="UTF-8"?>
<svg viewBox="0 0 177.83 132.67" xmlns="http://www.w3.org/2000/svg">
 <defs>
  <style>.cls-1{fill:#938061;}.cls-10,.cls-11,.cls-2,.cls-3{fill:#7d6946;}.cls-2{opacity:0.71;}.cls-4{fill:#dbd0ba;}.cls-5{fill:#b5a073;}.cls-13,.cls-14,.cls-6{fill:#7f6246;}.cls-6{opacity:0.22;}.cls-16,.cls-7,.cls-8{fill:#fff;}.cls-7{opacity:0.33;}.cls-9{fill:#231f20;}.cls-10{opacity:0.61;}.cls-11{opacity:0.51;}.cls-12{opacity:0.47;}.cls-14{opacity:0.45;}.cls-15{fill:#414042;}.cls-16{opacity:0.35;}.cls-17{fill:#4f3928;opacity:0.7;}</style>
 </defs>
 <g id="Layer_2" data-name="Layer 2">
  <g id="Layer_1-2" data-name="Layer 1">
   <path class="cls-1" d="M103.91,66.12c1.47,2.76,2.21,7.9,1.66,10.29S99.13,85.6,99,88.91c-1.47,2.57-1.29,3.86,1.84,5-.74,4,.55,4.78,1.28,6.43.37,2.21-1.28,5-.18,5.88s2,.18,2.76,3.49,4,4.78,6.61,5c9.74-8.82,17.46-23.33,18-29.95s-1.47-16-2.2-19.85a50.1,50.1,0,0,0-2.58-8.27Z"/>
   <path class="cls-2" d="M124.49,56.56l-20.58,9.56c1.47,2.76,2.21,7.9,1.66,10.29S99.13,85.6,99,88.91c-1.15,2-1.28,3.23.21,4.2a5.89,5.89,0,0,0,4.75-.9c2.21-1.47,2.76-2.38,5.7-.36,2.33,1.6,13.67-2.57,19.55-6.29.05-.31.09-.6.11-.88.55-6.62-1.47-16-2.2-19.85A50.1,50.1,0,0,0,124.49,56.56Z"/>
   <path class="cls-3" d="M104.14,95c-1.08,1-2.14,2.16-3.25,3a13.83,13.83,0,0,0,.94,1.8,16.5,16.5,0,0,0,2.61-4.6A.18.18,0,0,0,104.14,95Z"/>
   <path class="cls-3" d="m108.11 94.53a43.49 43.49 0 0 1-2.84 5c-0.34 0.41-2 2.3-3.44 3.65-0.29 1.31-0.58 2.48 0.06 3a3.74 3.74 0 0 0 0.91 0.52c1.72-2.69 4.66-8.64 5.48-12.11 0.03-0.1-0.12-0.15-0.17-0.06z"/>
   <path class="cls-3" d="M113.46,99.27a.2.2,0,0,0-.39-.09c-.48,1.33-1.21,3.42-1.76,5.28-.79,2.62-5.19,4.4-6.71,5,0,.07,0,.14.05.21a5.53,5.53,0,0,0,.95,2.1c1.19-.74,2.83-1.72,4.42-2.55C112.79,107.77,113,104.74,113.46,99.27Z"/>
   <path class="cls-4" d="M116.85,11.17C101.49,8.26,96-2.79,69.7,2.43,50.42,6.25,33,25.07,29.92,42.7S26.6,69.47,27.43,72.58c-2.49,3.94-18.67,19.5-20.54,27.59S6.06,129,14.36,131.5s7.26,1,6.84-4.57c2.29.83,5.61-5.39,4.36-9.12,1-2.7.21-8.72-.83-12,0-5,5.39-11,7.26-11.41,1.66,4.77,3.11,6,4.57,7.06,2.28-1.46,5.18-7.68,5.18-7.68.42,4.36.42,15.77,1,16.6s5.6,3.52,5.6,6,3.11,5.6,3.11,5.6c-.62,4-.41,6.44,4.78,7.06,6.84-10.58,9.12-22.41-2.49-37.76-2.29-3.73-2.49-6.64-2.29-7.26,2.91-3.53,6-6.85,6.23-8.92s4.15.2,6.84.2,13,4.34,22.39,2.57c11.41-2.15,20-7.88,24.16-10.27,5.15-2.93,16.73-8.48,19.64-11s6.43-6.22,6.43-6.22c9.13,2.28,12,2.7,14.94.41a20.7,20.7,0,0,0,11.41-4.56c1.22-.91,1.91-2.08,1.22-2.77,4.12.1,5.6-7.36,4.71-10.7s-3.92-7.85-4.41-8.44c1.47-.49,1.17-2.55.88-3.43a8,8,0,0,0-.1-4c1.28-2.55-.1-5-2.84-7.85S149-1.82,138.84.38C125.69,3.22,126.55,9.89,116.85,11.17Z"/>
   <path class="cls-5" d="M167.23,27.74h0c-.3-.52-.59-1-.86-1.44-1.73-1.28-5.41-3-6.36-4.37-.29-.41-1.38-3.55-2.54-5.47-.3-.51.91-.15,1.49-.25l5.81,1.23c-.06-1.08,1.05-.58,1.05-.58,1.28-2.55-.1-5-2.84-7.85S149-1.82,138.84.38c-13.15,2.84-12.29,9.51-22,10.79C101.49,8.26,96-2.79,69.7,2.43,50.42,6.25,33,25.07,29.92,42.7c-.29,1.62-.55,3.16-.79,4.63l2.55-1.27c8.09-4,15.12-7.18,17.66-7.72,6.8-1.44,15.33-3.47,18.51-4.63s10.86-8.53,18.23-6.07,14.18,9.69,15.63,9.11,3.47-3.62,7.23-3.18,3.19.87,5.21-.15,7.24-8.39,10.56-7.66,4.49,2.31,4.92.58,1.45-7.67,4.2-7.67,16.49-4.92,17.65-2,2.31,4.63,1.88,5.79-9.26,6.36-8.54,8c3.33,1.15,4.78.29,4.78.29s-1-2.32.14-2.75,5.51.54,5.51.54,2.74,7,3.32,7.41,2.06-1.62,3.08-3.06-.38-4.79,1.45-4.57a7.47,7.47,0,0,0,3.5-.24.33.33,0,0,1,.42.17,4.5,4.5,0,0,1,.33,2.18c.91.06,1.15-.13,1.15-.13A14.21,14.21,0,0,0,167.23,27.74Z"/>
   <path class="cls-6" d="M64.38,48C50.64,37.76,53,17.21,55.12,8.26,42.27,16.06,32.21,29.7,29.92,42.7c-3.11,17.64-3.32,26.77-2.49,29.88-2.49,3.94-18.67,19.5-20.54,27.59S6.06,129,14.36,131.5s7.26,1,6.84-4.57c2.29.83,5.61-5.39,4.36-9.12,1-2.7.21-8.72-.83-12,0-5,5.39-11,7.26-11.41,1.66,4.77,3.11,6,4.57,7.06,2.28-1.46,5.18-7.68,5.18-7.68.42,4.36.42,15.77,1,16.6s5.6,3.52,5.6,6,3.11,5.6,3.11,5.6c-.62,4-.41,6.44,4.78,7.06,6.84-10.58,9.12-22.41-2.49-37.76-2.29-3.73-2.49-6.64-2.29-7.26,2.91-3.53,6-6.85,6.23-8.92s4.15.2,6.84.2,13,4.34,22.39,2.57c11.41-2.15,20-7.88,24.16-10.27l.64-.36C85.83,64.63,79.28,59.18,64.38,48Z"/>
   <path class="cls-7" d="M136.76,16.93c-1.2.34-1.3,0-1.3,0l2.81-1.62a6.85,6.85,0,0,1-2.64.59s3.57-2.55,5.6-2.75c-.83-.21-2.06-.38-2.44-.55,1.78-.28,7.31-1,7.62-1.51.52.44.59.92-1,1.17.69.89.86,1.2.65,1.2h-1.85c3.16,1.37,3.36,2.46,3.4,3.32s.51,1.14.34,1.73-.75.72-.48,1a.8.8,0,0,1,.21,1.07,8.07,8.07,0,0,1-4.43,2.64,10.05,10.05,0,0,0,2.4-2.85c-4.5,3.13-5.95,1.79-7.87,1.07a7.68,7.68,0,0,1-3.19-2.61A6.24,6.24,0,0,0,136.76,16.93Z"/>
   <path class="cls-7" d="M161.52,21.15a17.11,17.11,0,0,0,4.65,1.23,5,5,0,0,0-.24-1.49,8,8,0,0,0-.1-4,4.22,4.22,0,0,0,.3-3.18,3.25,3.25,0,0,1-2.5.8c-2.66.09-4.22,2.39-4.59,2.8,1.38-.78,1.89.14,1.89.14C162.27,20.64,162.26,20.84,161.52,21.15Z"/>
   <path class="cls-8" d="m165.62 16.6c-2-0.51-3.87-0.25-4.69 0.82a11.3 11.3 0 0 1-1 1.26c1.48 1.51 2.77 2.39 3.72 2.39s1.3 0.33 2.37-0.32c0.45-1.26 0.48-3.68-0.4-4.15z"/>
   <path class="cls-9" d="M165.62,16.6c-1.83-.45-3.48-.3-4.39.51a5.25,5.25,0,0,0-.11,2.7,4.35,4.35,0,0,0,2.49,1.26c.94,0,1.3.33,2.37-.32C166.47,19.49,166.5,17.07,165.62,16.6Z"/>
   <path class="cls-10" d="M57.72,75.07c.21-2.08,4.15.2,6.84.2s13,4.34,22.39,2.57a58.78,58.78,0,0,0,15.54-5.42,122.83,122.83,0,0,1-39.93-5.2c-20.21-5.85-26.17-23.3-27.63-38.06a43.49,43.49,0,0,0-5,13.54c-3.11,17.64-3.32,26.77-2.49,29.88-2.49,3.94-18.67,19.5-20.54,27.59S6.06,129,14.36,131.5s7.26,1,6.84-4.57c2.29.83,5.61-5.39,4.36-9.12,1-2.7.21-8.72-.83-12,0-5,5.39-11,7.26-11.41,1.66,4.77,3.11,6,4.57,7.06,2.28-1.46,5.18-7.68,5.18-7.68.42,4.36.42,15.77,1,16.6s5.6,3.52,5.6,6,3.11,5.6,3.11,5.6c-.62,4-.41,6.44,4.78,7.06,6.84-10.58,9.12-22.41-2.49-37.76-2.29-3.73-2.49-6.64-2.29-7.26C54.4,80.46,57.51,77.14,57.72,75.07Z"/>
   <path class="cls-11" d="M67,47.74C63.48,49,41.8,61,39.78,65.75s-2.39,12.31-5,14.34.36-5.88.36-8.09S29.1,53.88,30.75,50.57s16-9.08,16.75-9.26S67,47.74,67,47.74Z"/>
   <g class="cls-12">
    <path class="cls-13" d="m29.47 84.59v-0.08z"/>
    <path class="cls-13" d="M60.82,119.5c-1.44-.39-2.7-.78-3.33-1.6a14.31,14.31,0,0,1-2.3-5.53c-.31-1.84-.54-.92-1.84-2s-.92-1.77-2-3.38-1.3-4.91-2.38-6.06-5.37-2.84-5.75-4.83S42.07,92,42.3,90.28c-1.92,3.45-2.69,8.28-5.07,8s-4.52-8.28-4.52-9.9c-1.46,3.46-1.15,4.61-2,3.84s-1.24-7.62-1.24-7.67,0,.09,0,.14c-.62,2.79-.37,5.92-1.79,6.07s-2.22-.92-2.76.16.08,2.68-.77,3.37-.23.92-1.45,1.92-1.46.38-2.38,2.15a29.36,29.36,0,0,0-2.76,6.37c-.77,2.76-2.77,4.06-3.38,5.37s.08,12.74-1.46,14.58c-.89,1.06-2.39,1-3.59,1.26,1.27,2.78,3,4.83,5.27,5.51,8.3,2.49,7.26,1,6.84-4.57,2.29.83,5.61-5.39,4.36-9.12,1-2.7.21-8.72-.83-12,0-5,5.39-11,7.26-11.41,1.66,4.77,3.11,6,4.57,7.06,2.28-1.46,5.18-7.68,5.18-7.68.42,4.36.42,15.77,1,16.6s5.6,3.52,5.6,6,3.11,5.6,3.11,5.6c-.62,4-.41,6.44,4.78,7.06A37.37,37.37,0,0,0,60.82,119.5Z"/>
   </g>
   <path class="cls-14" d="m24.63 81.92c-1-0.48-1.66-2.06-2.05-3.54-1 1.08-2 2.25-3.09 3.48 1 1.94 6.44 0.72 5.14 0.06z"/>
   <path class="cls-14" d="M51.68,86.37a38.85,38.85,0,0,1-4.27,1.11s0,.41,2.54,1c-.17.41-2.45,1.3-5.31,1.63a9.91,9.91,0,0,0,5.55-.24c-.57,1-4.25,1.87-2.37,1.87,1.15,0,3.49-1.1,5.14-2A15.85,15.85,0,0,1,51.68,86.37Z"/>
   <path class="cls-13" d="M64.6,75.28c-3.63-1.47-8.2-3.1-10.49-4.14-.59-.26,1.39,1.55,3.84,3.35.92-1,4.25.78,6.61.78Z"/>
   <path class="cls-15" d="M165.54,32.74c-.21.07-.17.69.11.9a.72.72,0,0,0,1-.38c1.15-.35,7.09.29,11.19,5.15C174.14,33,167.73,32,165.54,32.74Z"/>
   <path class="cls-15" d="M167.81,34.36a.79.79,0,0,0-.11,1.09c.14.16.8.29.84-.16,1.5-.22,6.85,3.69,9,7.87C176.29,39.91,172.31,35.05,167.81,34.36Z"/>
   <path class="cls-15" d="M165.69,35.51c2.62.37,9.71,6.25,10.58,9.44a26.28,26.28,0,0,0-9.86-8.62c-.32.36-.65.41-.93.22S165.69,35.51,165.69,35.51Z"/>
   <path class="cls-15" d="M166.7,37.39c2.69,1.37,5.57,5.19,6.75,8.74-1.59-2.26-2.28-5-6.17-8-.3.19-.81.32-.83,0A1.53,1.53,0,0,1,166.7,37.39Z"/>
   <path class="cls-15" d="M165,38.81c1.41.21,5.13,3.43,6.54,8.62-1.13-2.23-2.47-5.51-5.77-7.9-.41.48-.43.37-.77.18S165,38.81,165,38.81Z"/>
   <path class="cls-7" d="M165,42.93c-.73-.24-6.67-2.39-6.67-2.39l-6.13,2.18s-3.09.61-3.21.61l-8.67-.55c1.53,1.13,6.22,2.07,9.16,1.83s6.64-2.26,10.13-1.06a30.07,30.07,0,0,1,4.64,2.06c.75-.77,1.06-1.61.52-2.15a3.08,3.08,0,0,0,.61-.05A.74.74,0,0,0,165,42.93Z"/>
   <path class="cls-9" d="m159.27 31.52v0.25c-0.12 1.39-0.67 6.93-1.25 7.66-2 1-6 3.52-10.23 3.56a75.69 75.69 0 0 1-8.57-0.49 22.82 22.82 0 0 0 12.13 1.11c2.72-0.86 5.34-2.73 7.37-2.15s5.75 2 6.06 2a7.46 7.46 0 0 0 1.89-0.56c-1.78-0.16-3.4-1.19-4.6-1.6a15 15 0 0 1-3-1.78c0.52-2.7 0.83-5.64 0.22-7.94"/>
   <path class="cls-9" d="M150,27.47c3.81.33,5.64-.17,6.3.82a11.27,11.27,0,0,1,.62,4.15c-.79-1.87-1.66-4-1.66-4C153.76,28.05,150,27.47,150,27.47Z"/>
   <path class="cls-9" d="m162.55 28.21c-0.69 0.28-1.08 2.69-0.67 4.23a8.63 8.63 0 0 1 1.23-3.72 12.87 12.87 0 0 1 2.66-0.51 7.14 7.14 0 0 0-3.22 0z"/>
   <path class="cls-8" d="M136.14,19c1.62-2.16,3.46-3.95,5.08-4s4.65.22,5.51,3.3A6.79,6.79,0,0,1,142.25,22c-2.17.33-3.73-1.29-4.22-1.62S136.14,19,136.14,19Z"/>
   <path class="cls-9" d="M144.8,15.75a6.81,6.81,0,0,0-3.58-.75,5.53,5.53,0,0,0-3.33,1.94,13.61,13.61,0,0,0,.08,3.37l.06,0c.49.33,2.05,1.95,4.22,1.62a6.64,6.64,0,0,0,3.43-2.09A9.56,9.56,0,0,0,144.8,15.75Z"/>
   <path class="cls-13" d="m136.14 51.31c-3.14-1.18-6.98-4.31-8.14-6.31 5.16 3.76 7.85 5.19 8.71 5.3s-0.57 1.01-0.57 1.01z"/>
   <path class="cls-13" d="m151.54 51.2c-4.14 0.7-10.35-1.11-14.23-3.44 4.45 1.85 11.33 3.52 14.81 3-0.36 0.3-0.58 0.44-0.58 0.44z"/>
   <path class="cls-15" d="M151.19,32.25c.24.08.19.77-.12,1a.79.79,0,0,1-1.09-.42c-1.28-.39-7.85.32-12.38,5.7C141.68,32.52,148.77,31.4,151.19,32.25Z"/>
   <path class="cls-15" d="M148.68,34a.87.87,0,0,1,.12,1.21c-.15.18-.88.32-.93-.17-1.65-.25-7.58,4.08-9.91,8.69C139.31,40.19,143.7,34.81,148.68,34Z"/>
   <path class="cls-15" d="M151,35.32c-2.9.41-10.74,6.91-11.7,10.44,2.32-3.49,6.77-7.72,10.9-9.54.35.4.72.46,1,.25S151,35.32,151,35.32Z"/>
   <path class="cls-15" d="M149.91,37.4c-3,1.51-6.17,5.73-7.47,9.67,1.76-2.51,2.53-5.51,6.83-8.82.33.21.89.35.91,0A1.72,1.72,0,0,0,149.91,37.4Z"/>
   <path class="cls-15" d="M151.82,39c-1.55.23-5.67,3.79-7.23,9.53,1.25-2.47,2.74-6.09,6.38-8.74.45.54.48.41.85.21S151.82,39,151.82,39Z"/>
   <path class="cls-16" d="m90.62 9.58c-5.52-1.43-30-2.84-43.69 4.33 11-8.5 27.85-12.5 41.52-10.5s11.18 8.5 2.17 6.17z"/>
   <path class="cls-4" d="M61.49,27.49C54.37,28.43,1.59,53.39,0,64.24c.72,2.32,3.62,1.16,6.37-1.45s42.1-18.95,49.77-17.36c5.78,1.45,7.08,3.62,8.1,3.62C69,51.8,75.52,47,76.39,46.16s2.17-1.16,1-6.8S71.33,26.19,61.49,27.49Z"/>
   <path class="cls-5" d="M.46,62.82c9-6.59,23.11-12.91,27.62-15.39C34.34,44,58.25,36.13,63.7,35a21.28,21.28,0,0,0,8.88-4.3,13.2,13.2,0,0,0-11.09-3.23C54.66,28.4,5.89,51.36.46,62.82Z"/>
   <path class="cls-17" d="M73.2,41.74c-.31,1.73-3.46,4.09-6.13,4.41s-7.39-3.93-7.39-3.93l-20.76,4.4c-2.2.47-27.83,11.79-29.71,12.73C7.93,60,3.1,62.81.13,64.55c.88,1.88,3.62.72,6.24-1.76s42.1-18.95,49.77-17.36c5.78,1.45,7.08,3.62,8.1,3.62a7.46,7.46,0,0,0,5.59.55l.23-.15c1.73-1.26,4.56-2.83,5.18-5.19a8,8,0,0,1-5.34,2.36C71,46.15,73.52,44.1,73.2,41.74Z"/>
  </g>
 </g>
</svg>
