<?xml version="1.0" encoding="UTF-8"?>
<!DOCTYPE svg  PUBLIC '-//W3C//DTD SVG 1.1//EN'  'http://www.w3.org/Graphics/SVG/1.1/DTD/svg11.dtd'>
<!-- Created with Inkscape (http://www.inkscape.org/) -->
<svg id="Layer_1" width="467.67" height="467.72" version="1.1" viewBox="0 0 467.03 469.96" xml:space="preserve" xmlns="http://www.w3.org/2000/svg">
<path id="path3758" d="m413.82 144.81c0.11036-0.04541 24.75 48.75 20.378 100.62-2.3779 87.125-79.378 185.96-194.13 189.17l-16-0.33301c-118.25-5.877-190.92-106.21-190.58-196.88 0.29199-16.855 0.22412-35.697 7.3335-59l7.25 2.1665c30.305 11.454 63 100 169.29 105.04 4.6143 0.21875 13.478 0.42285 13.458 0.45996-6.8804 6.8643-46 23-63.75 27.25 4.6416-1.1113-0.3628-0.11426 0 0 42.75 26.5 85.5-24.5 141-32l17-1c-3.25-10.25-17.882-9.3848-19.25-9.25-38.399 3.7803-28.807-0.62402-30-0.25 59-18.5 93-65.75 135.46-123.21l2.5371-2.79z" fill="#007ec6"/>
<path id="path3766" d="m328.07 56.558c-4.123-2.1929-38.75-23-91.916-23.833-115.25 0.41504-166 85-166 85 25.5 12.5 51.96 50.144 52.333 50.667 28.538 40.04 68.307 102.1 119.84 103.29 16.498 0.37988 27.472-9.4893 39.998-21.62 45.744-44.303 52.148-126.21 110.75-137.75 0 0-21.75-32.75-65-55.75zm-127.7 54.177h13.697c5.5258 0 9.9743 4.4485 9.9743 9.9743v32.968c0 5.5258-4.4485 9.9743-9.9743 9.9743h-13.697c-5.5258 0-9.9743-4.4485-9.9743-9.9743v-32.968c0-5.5258 4.4485-9.9743 9.9743-9.9743zm3.6494 9.08h6.3986c1.274 0 2.2997 1.0257 2.2997 2.2997v30.158c0 1.274-1.0257 2.2997-2.2997 2.2997h-6.3986c-1.274 0-2.2997-1.0257-2.2997-2.2997v-30.158c0-1.274 1.0257-2.2997 2.2997-2.2997zm39.676-9.0688c-5.5258 0-9.9687 4.443-9.9688 9.9688v42.938h11.312v-21.25h11v21.25h11.312v-42.938c0-5.5258-4.443-9.9688-9.9688-9.9688h-13.688zm3.6562 9.0625h6.375c1.274 0 2.3125 1.0385 2.3125 2.3125v11.219h-11v-11.219c0-1.274 1.0385-2.3125 2.3125-2.3125zm39.653-9.0625c-5.5258 0-9.9687 4.443-9.9688 9.9688v42.938h11.312v-21.25h11v21.25h11.312v-42.938c0-5.5258-4.443-9.9688-9.9688-9.9688h-13.688zm3.6562 9.0625h6.375c1.274 0 2.3125 1.0385 2.3125 2.3125v11.219h-11v-11.219c0-1.274 1.0385-2.3125 2.3125-2.3125zm-143.61-9.0625v52.906h11.344v-41.531c-1e-5 -1.274 1.0072-2.3125 2.2812-2.3125h6.4062c1.274 0 2.3125 1.0385 2.3125 2.3125v41.531h11.312v-42.938c0-5.5258-4.443-9.9688-9.9688-9.9688h-23.688z" fill="#263f78" fill-rule="evenodd"/><path id="text4662" d="m33.805 305-20.183 6.3063-0.9376-3.0008 11.716-14.008c0.25408-0.30999 0.49845-0.58687 0.7331-0.83065 0.23467-0.24376 0.46104-0.44985 0.67913-0.61828l-16.36 5.1118-0.81772-2.6171 20.183-6.3063 0.92903 2.9734-11.857 14.278c-0.18269 0.21752-0.37809 0.42646-0.58622 0.62684-0.20809 0.20039-0.43204 0.3982-0.67185 0.59344l16.36-5.1118 0.81344 2.6034zm-15.44-22.2-1.3619-6.4469-8.4531 5.131 9.815 1.3159zm9.8598 4.1676-22.312-3.3124-0.65572-3.104 19.06-12.081 0.64385 3.0479-5.7172 3.4966 1.7209 8.1464 6.6458 0.89964 0.61418 2.9074zm-4.7071-25.297-18.433 2.304 0.82795 6.6237-2.5498 0.31872-2.0138-16.111 2.5498-0.31871 0.82795 6.6238 18.433-2.304 0.35789 2.8632zm-1.2449-12.094-21.098 1.4202-0.19283-2.8646 21.098-1.4202 0.19283 2.8646zm-11.156-9.5954c2.7084 0.00872 4.8278-0.60893 6.3583-1.853 1.5305-1.244 2.2993-2.9714 2.3064-5.1821 0.007082-2.2011-0.75061-3.9238-2.2731-5.1681-1.5225-1.2442-3.6379-1.8707-6.3463-1.8794-2.7179-0.00872-4.8397 0.60413-6.3654 1.8386-1.5256 1.2345-2.292 2.9523-2.2991 5.1534-0.0070913 2.2107 0.74818 3.943 2.2658 5.1968 1.5177 1.2538 3.6355 1.8851 6.3534 1.8938zm-0.009557 2.9716c-3.4931-0.01124-6.2202-0.90766-8.1812-2.6893-1.961-1.7816-2.9364-4.2419-2.9263-7.381 0.010087-3.1295 0.99891-5.5739 2.9665-7.3333 1.9676-1.7594 4.7027-2.6334 8.2054-2.6222 3.4932 0.01126 6.2202 0.90289 8.1812 2.6749 1.961 1.7721 2.9365 4.2228 2.9264 7.3523-0.010097 3.139-1.0013 5.593-2.9737 7.362-1.9724 1.769-4.7052 2.6478-8.1983 2.6366zm10.893-23.6-21.028-2.2297 0.33151-3.1263 16.316-8.2018c0.35631-0.18355 0.69055-0.34059 1.0027-0.47111 0.31218-0.13049 0.6018-0.2297 0.86885-0.29764l-17.045-1.8074 0.28912-2.7266 21.028 2.2297-0.32848 3.0978-16.553 8.3932c-0.25406 0.12705-0.51638 0.24118-0.78698 0.34241-0.27057 0.10124-0.55467 0.19382-0.8523 0.27774l17.045 1.8074-0.28761 2.7123zm-5.3582-26.503 1.3077-6.4581-9.795 1.356 8.4873 5.1021zm7.3971 7.7374-19.167-11.893 0.62965-3.1094 22.289-3.5277-0.61825 3.0532-6.6352 0.94131-1.6525 8.1605 5.7434 3.4626-0.58976 2.9125zm4.4234-20.605-20.313-5.8739 0.80552-2.7857 17.748 5.1322 2.927-10.122 2.565 0.74171-3.7325 12.908zm-1.6844-28.769c2.483 1.0817 4.6737 1.3548 6.5719 0.81942 1.8982-0.53536 3.2888-1.8164 4.1717-3.8432 0.87908-2.018 0.86638-3.8999-0.038097-5.6458-0.90448-1.7458-2.5982-3.1596-5.0813-4.2413-2.4918-1.0855-4.6827-1.3639-6.5727-0.83545-1.89 0.52853-3.2746 1.8018-4.1537 3.8198-0.88289 2.0268-0.87621 3.9166 0.020049 5.6692 0.89629 1.7527 2.5903 3.1718 5.0821 4.2573zm-1.1868 2.7243c-3.2025-1.3951-5.3508-3.2991-6.4448-5.7121-1.094-2.413-1.0142-5.0584 0.23941-7.9363 1.2498-2.8691 3.1267-4.7212 5.6305-5.5565 2.5038-0.83524 5.3614-0.55342 8.5727 0.84544 3.2025 1.3951 5.3527 3.2948 6.4505 5.699 1.0979 2.4042 1.0219 5.0409-0.22794 7.91-1.2537 2.8779-3.1365 4.7379-5.6486 5.58-2.512 0.84213-5.3693 0.56566-8.5718-0.82942zm19.815-34.104 1.3694-2.425c2.1805 1.3742 3.5342 3.147 4.0611 5.3184 0.52685 2.1714 0.155 4.3822-1.1155 6.6322-1.4635 2.5917-3.4939 4.1242-6.0911 4.5974-2.5973 0.47324-5.4584-0.17247-8.5835-1.9371-2.8834-1.6282-4.7377-3.6919-5.563-6.1913-0.82528-2.4993-0.49913-5.0573 0.97846-7.674 1.1765-2.0834 2.6775-3.4861 4.503-4.2083 1.8256-0.72212 3.7264-0.66268 5.7024 0.17835l-1.3835 2.45c-1.3484-0.45368-2.5968-0.42773-3.7451 0.07786-1.1483 0.50564-2.1177 1.4584-2.9083 2.8585-1.0541 1.8667-1.2175 3.684-0.49034 5.452 0.7272 1.768 2.2825 3.3249 4.6659 4.6708 2.25 1.2706 4.3566 1.7539 6.3196 1.4501 1.963-0.3038 3.4434-1.3391 4.441-3.1058 0.85174-1.5084 1.0806-3.0085 0.68661-4.5004-0.39401-1.4919-1.343-2.7065-2.8471-3.6437zm10.104-1.386-17.362-12.07 8.6038-12.377 2.157 1.4995-6.9813 10.043 5.1863 3.6054 6.4487-9.2765 2.0274 1.4094-6.4487 9.2765 5.8229 4.0479 7.1206-10.243 2.1688 1.5077-8.7431 12.577zm6.5486-23.822 4.2212-5.0595-9.2616-3.4646 5.0404 8.524zm2.8282 10.324-11.206-19.576 2.0324-2.436 21.286 7.495-1.9957 2.392-6.2847-2.3269-5.334 6.3932 3.4062 5.7771-1.9037 2.2817zm13.604-16.068-14.904-15 2.2302-2.2158 17.833 3.9353c0.39223 0.082489 0.7506 0.17162 1.0751 0.2674 0.32451 0.095805 0.61178 0.20163 0.8618 0.31746l-12.081-12.159 1.9451-1.9325 14.904 15-2.2098 2.1956-18.137-3.9362c-0.27725-0.061786-0.55277-0.13881-0.82655-0.23107-0.27377-0.092227-0.55257-0.19971-0.83641-0.32246l12.081 12.159-1.9349 1.9224zm15.358-14.716-13.862-15.968 2.1681-1.8822 13.862 15.968-2.1681 1.8822zm12.687-20.177 2.2202-1.6812c1.4549 2.1275 1.9927 4.2922 1.6134 6.4942-0.37938 2.202-1.5991 4.0829-3.6591 5.6428-2.3728 1.7968-4.845 2.3963-7.4164 1.7985-2.5715-0.59777-4.9404-2.3272-7.107-5.1884-1.999-2.6399-2.8806-5.2705-2.6448-7.892 0.2358-2.6214 1.5515-4.8392 3.9473-6.6534 1.9074-1.4443 3.8422-2.1351 5.8045-2.0724 1.9622 0.062757 3.6829 0.87262 5.162 2.4296l-2.2431 1.6986c-1.0571-0.95214-2.213-1.4244-3.4677-1.4167-1.2546 0.007722-2.5229 0.49688-3.8047 1.4675-1.709 1.2942-2.5812 2.8969-2.6164 4.8083-0.035206 1.9114 0.77336 3.9581 2.4257 6.1402 1.5599 2.06 3.3009 3.3407 5.2231 3.8419 1.9221 0.50125 3.6919 0.13946 5.3094-1.0854 1.381-1.0457 2.1871-2.3314 2.4184-3.857 0.23125-1.5256-0.157-3.0173-1.1648-4.475zm15.521-11.091 5.7275-3.2577-7.4583-6.4927 1.7308 9.7504zm-0.97221 10.66-3.6287-22.263 2.7577-1.5685 17.305 14.484-2.7078 1.5401-5.0694-4.3833-7.2374 4.1164 1.1637 6.6047-2.583 1.4691zm18.375-10.276-8.6784-19.283 2.8669-1.2903 15.311 9.9536c0.33818 0.21512 0.64234 0.42456 0.91248 0.62832 0.27011 0.20378 0.50183 0.40384 0.69516 0.60019l-7.0347-15.63 2.5003-1.1253 8.6785 19.283-2.8407 1.2785-15.595-10.062c-0.23782-0.15532-0.46867-0.32429-0.69254-0.50691-0.22387-0.18259-0.44708-0.38124-0.66964-0.59593l7.0347 15.63-2.4872 1.1194zm20.909-28.713-4.6822 1.5695 5.1237 15.285 4.6822-1.5695c2.0054-0.6722 3.3025-1.8312 3.8914-3.4771 0.58887-1.6458 0.45596-3.7437-0.39874-6.2935-0.81822-2.4409-1.9666-4.1353-3.445-5.0831-1.4785-0.94778-3.2023-1.0917-5.1713-0.43164zm-1.4595 20.217-6.7206-20.049 7.6358-2.5596c2.7948-0.93681 5.2139-0.81907 7.2572 0.35322 2.0433 1.1723 3.5926 3.3328 4.6481 6.4815 1.092 3.2576 1.1723 6.0493 0.24108 8.3752-0.93126 2.3259-2.7761 3.9511-5.5346 4.8758l-7.527 2.5231zm29.618-17.645 6.4686-1.2549-4.9902-8.5369-1.4783 9.7918zm-4.3303 9.7894 3.6816-22.254 3.1145-0.60421 11.764 19.258-3.0581 0.59327-3.4014-5.7743-8.1738 1.5857-1.0096 6.63-2.9172 0.56593zm25.372-4.288-2.0004-18.468-6.6365 0.71885-0.27671-2.5547 16.142-1.7484 0.27672 2.5547-6.6365 0.71885 2.0004 18.468-2.8687 0.31073zm14.477-19.312 0.21367 18.015-2.6412 0.031327-0.25079-21.144 4.1054-0.048694 5.4312 16.115c0.15856 0.45753 0.27523 0.81267 0.35002 1.0654 0.07477 0.25275 0.13243 0.47459 0.17299 0.66552 0.07235-0.35498 0.14516-0.67169 0.21844-0.95012 0.07325-0.27842 0.15147-0.54255 0.23466-0.79239l5.2341-16.242 4.1197-0.048864 0.25079 21.144-2.7848 0.03303-0.21368-18.015c-0.06337 0.30704-0.13627 0.61657-0.21869 0.92859-0.08245 0.31205-0.1697 0.62175-0.26175 0.9291l-5.2486 16.228-2.713 0.032179-5.5029-16.1c-0.09888-0.2668-0.18841-0.55287-0.2686-0.8582-0.08019-0.3053-0.15588-0.6346-0.22706-0.9879zm25.061 7.7482c-0.26486 2.6954 0.14954 4.8638 1.2432 6.505 1.0937 1.6413 2.7406 2.57 4.9407 2.7862 2.1906 0.21526 3.9773-0.37609 5.36-1.774 1.3827-1.3979 2.2064-3.4446 2.4713-6.1401 0.26578-2.7049-0.14363-4.8752-1.2282-6.5108-1.0846-1.6356-2.7222-2.561-4.9128-2.7763-2.2002-0.21617-3.9961 0.37186-5.3878 1.7641-1.3918 1.3923-2.2205 3.4409-2.4863 6.1458zm-2.9573-0.29059c0.3416-3.4764 1.492-6.1064 3.4511-7.8901 1.9591-1.7836 4.5007-2.522 7.6247-2.215 3.1145 0.30606 5.4544 1.5217 7.0198 3.6468 1.5654 2.1252 2.1768 4.9308 1.8343 8.4167-0.34162 3.4764-1.4872 6.1069-3.4368 7.8915-1.9496 1.7846-4.4816 2.5239-7.5961 2.2178-3.124-0.30697-5.4733-1.5259-7.0477-3.6568-1.5745-2.1309-2.1909-4.9345-1.8493-8.411zm22.884 6.1069 2.7174 0.54059c-0.27062 1.5074-0.00888 2.8036 0.78522 3.8886 0.79409 1.085 2.003 1.789 3.6269 2.112 1.605 0.31931 2.9371 0.23302 3.9961-0.25886 1.059-0.49189 1.7043-1.3198 1.9358-2.4837 0.31556-1.5863-1.181-3.1379-4.4896-4.6548-0.19717-0.088006-0.34927-0.1573-0.4563-0.20787-2.6833-1.2266-4.3962-2.3407-5.1386-3.3422-0.74239-1.0015-0.96327-2.2578-0.66263-3.7691 0.36786-1.8491 1.3392-3.2 2.914-4.0528 1.5748-0.85276 3.4838-1.056 5.7272-0.60973 2.2903 0.45565 3.9753 1.4032 5.055 2.8426 1.0797 1.4394 1.4245 3.1888 1.0344 5.2481l-2.692-0.52091c0.18248-1.4078-0.07724-2.567-0.77918-3.4776-0.70196-0.9105-1.7898-1.5123-3.2634-1.8055-1.3798-0.27448-2.5429-0.19118-3.4894 0.2499-0.94645 0.44111-1.5196 1.1638-1.7194 2.1682-0.31932 1.6051 1.1509 3.1417 4.4107 4.6098 0.48258 0.22287 0.85344 0.39423 1.1126 0.51407 0.05444 0.0206 0.14833 0.063673 0.28167 0.12922 2.1275 0.97945 3.4957 1.8518 4.1046 2.6169 0.46041 0.5795 0.76936 1.2337 0.92684 1.9628 0.15745 0.72902 0.15402 1.5065-0.01029 2.3325-0.39776 1.9993-1.43 3.4479-3.0967 4.3458-1.6667 0.89791-3.7203 1.1041-6.1608 0.61862-2.5156-0.50044-4.3484-1.5262-5.4987-3.0772-1.1502-1.551-1.5408-3.5242-1.1716-5.9195zm24.186 0.73842 4.6283 1.3581c1.607 0.47156 2.8051 0.54385 3.5943 0.21686 0.78911-0.32697 1.3669-1.1149 1.7334-2.3638 0.35297-1.203 0.28945-2.1592-0.19058-2.8685-0.48006-0.70935-1.4593-1.281-2.9378-1.7148l-4.8349-1.4187-1.9927 6.7909zm-5.9844 10.198 5.9537-20.29 7.4659 2.1907c1.2122 0.35571 2.1176 0.6862 2.7162 0.99149 0.59859 0.30532 1.1054 0.66848 1.5205 1.0895 0.69442 0.6925 1.1327 1.5442 1.3148 2.5551 0.18209 1.0109 0.09934 2.1087-0.24824 3.2933-0.33146 1.1295-0.84422 2.0612-1.5383 2.7951-0.6941 0.73388-1.539 1.234-2.5348 1.5003-0.57295 0.15105-1.2059 0.19223-1.8988 0.12353-0.69299-0.068687-1.7925-0.32399-3.2985-0.76591l-4.1875-1.2287-2.51 8.5541-2.7549-0.80838zm17.762 5.3694 7.8395-19.639 2.6665 1.0644-3.2199 8.0661 10.186 4.0661 3.2199-8.0661 2.6798 1.0698-7.8395 19.639-2.6798-1.0698 3.6723-9.1994-10.186-4.0661-3.6723 9.1994-2.6665-1.0644zm19.632 8.1323 9.661-18.81 13.408 6.8866-1.2002 2.3368-10.88-5.588-2.8858 5.6186 10.05 5.1617-1.1281 2.1964-10.05-5.1617-3.24 6.3082 11.097 5.6995-1.2068 2.3496-13.625-6.9981zm28.984-5.5099-3.8336 6.0512 4.1473 2.6274c1.4956 0.94752 2.7063 1.3747 3.6321 1.2814 0.92575-0.093254 1.7472-0.7058 2.4642-1.8376 0.67093-1.0591 0.85364-1.9913 0.54816-2.7966-0.30553-0.80532-1.2425-1.7048-2.8108-2.6984l-4.1473-2.6274zm-1.0478-3.6037 6.9244 4.3868c1.1237 0.71193 1.9196 1.2841 2.3877 1.7166 0.46805 0.4325 0.84058 0.89509 1.1176 1.3878 0.49062 0.88864 0.69896 1.825 0.625 2.8091-0.074 0.9841-0.42598 1.9733-1.0559 2.9677-0.60951 0.96206-1.3368 1.654-2.1819 2.076-0.84512 0.42193-1.7988 0.56828-2.8612 0.43904 0.57232 0.6345 0.86007 1.2756 0.86323 1.9234 0.00313 0.64776-0.3072 1.5444-0.93097 2.69l-1.6607 3.0774c-0.35909 0.65619-0.57456 1.1796-0.64643 1.5703-0.07189 0.39063-0.02349 0.73001 0.1452 1.0181l-0.31499 0.4972-2.8013-1.7747c0.00922-0.5153 0.35606-1.4115 1.0405-2.6886 0.02048-0.032343 0.03584-0.056596 0.0461-0.07276l1.3295-2.4205c0.67716-1.2477 0.91418-2.1852 0.71107-2.8123-0.20313-0.62717-1.1616-1.4837-2.8756-2.5695l-3.929-2.4892-4.8477 7.652-2.4011-1.5212 11.316-17.863zm5.0382 28.624 12.429-17.107 2.3227 1.6876-12.429 17.107-2.3227-1.6876zm22.518 7.8087 2.1387 1.7838c-1.7445 1.8973-3.7322 2.9095-5.963 3.0366-2.2308 0.12709-4.3384-0.6369-6.3228-2.292-2.2857-1.9064-3.4274-4.1796-3.425-6.8196 0.00235-2.64 1.1529-5.3381 3.4516-8.0941 2.1209-2.5429 4.485-3.9952 7.0921-4.3568 2.6071-0.36158 5.0645 0.42002 7.3723 2.3448 1.8374 1.5325 2.9468 3.2616 3.3283 5.1874 0.38146 1.9258-0.01941 3.7848-1.2026 5.577l-2.1608-1.8022c0.68916-1.2447 0.8885-2.4773 0.59802-3.6979-0.29052-1.2206-1.0531-2.3458-2.2878-3.3756-1.6463-1.3731-3.4045-1.8612-5.2745-1.4644-1.8701 0.39684-3.6817 1.6462-5.4348 3.7482-1.6551 1.9844-2.51 3.9694-2.5648 5.955-0.05478 1.9857 0.69689 3.6283 2.255 4.9278 1.3302 1.1095 2.7646 1.6049 4.3031 1.486 1.5385-0.11882 2.9041-0.83354 4.097-2.1442zm14.305 12.613 4.4686 4.8424 4.6377-8.7335-9.1063 3.8911zm-10.604 1.4639 20.865-8.5697 2.1516 2.3315-10.195 20.132-2.1126-2.2893 3.1232-5.9294-5.6466-6.1189-6.1704 2.6273-2.0152-2.1838zm33.78 10.443-2.9997-3.9228-12.806 9.7927 2.9997 3.9228c1.2848 1.6801 2.8011 2.5326 4.5489 2.5574 1.7478 0.02483 3.6899-0.77955 5.8261-2.4131 2.045-1.5638 3.2768-3.1985 3.6954-4.9041 0.41856-1.7056-0.00291-3.3832-1.2644-5.0329zm-19.602 5.1589 16.797-12.845 4.892 6.3973c1.7905 2.3415 2.4616 4.6686 2.0133 6.9812-0.44835 2.3126-1.9915 4.4776-4.6295 6.4949-2.7292 2.087-5.3449 3.0661-7.8469 2.9373-2.502-0.12882-4.6367-1.3488-6.404-3.6598l-4.8222-6.3061zm29.283 9.5-15.39 9.3669-1.3733-2.2563 18.063-10.994 2.1346 3.5071-11.096 12.887c-0.3128 0.36964-0.55886 0.65104-0.73817 0.84422-0.17933 0.19316-0.34079 0.35586-0.48438 0.48808 0.34228-0.11871 0.65186-0.21751 0.92876-0.2964 0.27687-0.0789 0.54398-0.14625 0.80132-0.20203l16.641-3.7763 2.1421 3.5194-18.063 10.994-1.448-2.379 15.39-9.3669c-0.29646 0.10199-0.59991 0.19706-0.91036 0.2852-0.3105 0.08813-0.62141 0.17094-0.93275 0.24842l-16.636 3.7566-1.4106-2.3176 11.046-12.941c0.17913-0.22107 0.3796-0.44392 0.60141-0.66855 0.22178-0.22462 0.4665-0.4576 0.73417-0.69893zm-4.4704 28.252 18.839-9.6029 1.3038 2.558-18.839 9.6029-1.3038-2.558zm3.4774 6.6476 19.449-8.2998 1.234 2.8916-10.251 15.113c-0.2217 0.33391-0.43704 0.63392-0.64604 0.90002-0.20903 0.26607-0.41358 0.49384-0.61367 0.6833l15.765-6.7278 1.0762 2.5219-19.449 8.2998-1.2227-2.8652 10.365-15.396c0.15994-0.23475 0.33339-0.46225 0.52036-0.6825 0.18693-0.22026 0.3899-0.43954 0.60891-0.65787l-15.765 6.7278-1.0706-2.5086zm7.9887 19.713 19.969-6.9555 0.94441 2.7113-19.969 6.9555-0.9444-2.7113zm8.955 4.2855 0.74457 2.6687c-1.4672 0.43916-2.5056 1.258-3.1151 2.4564s-0.69184 2.595-0.24689 4.1898c0.43979 1.5763 1.1182 2.7259 2.0353 3.4487 0.91704 0.72281 1.9471 0.92476 3.0902 0.60585 1.5579-0.43466 2.2666-2.4705 2.1262-6.1076-0.0105-0.21567-0.01735-0.38267-0.02055-0.50099-0.11709-2.9481 0.10357-4.9794 0.66199-6.094 0.5584-1.1146 1.5797-1.879 3.0638-2.293 1.816-0.50666 3.4599-0.24996 4.9319 0.77012 1.4719 1.0201 2.5152 2.6317 3.1299 4.8349 0.62752 2.2492 0.54289 4.1805-0.25391 5.7939-0.79685 1.6133-2.2021 2.7108-4.2157 3.2925l-0.75069-2.6372c1.3386-0.47283 2.2556-1.228 2.7511-2.2654 0.49546-1.0374 0.54131-2.2798 0.13754-3.727-0.3781-1.3551-0.97758-2.3553-1.7985-3.0006-0.82092-0.64532-1.7246-0.83038-2.7109-0.55518-1.5763 0.43979-2.2836 2.4454-2.1217 6.0169 0.01903 0.53121 0.03359 0.93949 0.04366 1.2248 0.0062 0.05787 0.01016 0.16109 0.01188 0.30966 0.08666 2.3405-0.0739 3.9552-0.48168 4.844-0.30918 0.67246-0.75345 1.2435-1.3328 1.7132-0.57938 0.46964-1.2747 0.81763-2.0859 1.044-1.9635 0.5478-3.7221 0.28085-5.2758-0.80085-1.5537-1.0817-2.6649-2.821-3.3336-5.2177-0.68928-2.4705-0.60163-4.569 0.26294-6.2957 0.86457-1.7266 2.4488-2.966 4.7528-3.7181zm-0.69888 25.768 18.251-3.4587-1.2429-6.5586 2.5247-0.47844 3.023 15.952-2.5247 0.47844-1.2429-6.5586-18.251 3.4587-0.53725-2.835zm20.971 12.825-7.1263 0.72744 0.49856 4.8842c0.17978 1.7614 0.59248 2.977 1.2381 3.6471 0.64558 0.67002 1.6348 0.93701 2.9678 0.80096 1.2472-0.12733 2.0929-0.55997 2.5371-1.2979 0.44414-0.738 0.57194-2.0305 0.38342-3.8775l-0.49857-4.8842zm2.1849-3.0513 0.8324 8.1546c0.13507 1.3234 0.17732 2.3027 0.12675 2.938-0.05062 0.63526-0.18394 1.214-0.39996 1.7364-0.3952 0.93499-1.0024 1.6776-1.8217 2.2278-0.81928 0.55018-1.8144 0.88505-2.9855 1.0046-1.133 0.11563-2.1265-0.02826-2.9806-0.43168-0.85409-0.40346-1.5587-1.0627-2.1138-1.9776-0.14494 0.8421-0.471 1.4646-0.97821 1.8675-0.50722 0.40289-1.4039 0.71327-2.69 0.93115l-3.4456 0.59702c-0.73777 0.1234-1.2824 0.2776-1.6339 0.4626-0.35149 0.18497-0.58834 0.43282-0.71054 0.74353l-0.58554 0.05977-0.33675-3.299c0.41075-0.3113 1.3296-0.59269 2.7566-0.84415 0.03808-0.00391 0.06664-0.00682 0.08568-0.00875l2.7245-0.45127c1.3994-0.23906 2.2828-0.63227 2.6502-1.1796 0.3674-0.54738 0.44809-1.8303 0.24206-3.8487l-0.47232-4.6271-9.0115 0.91987-0.28864-2.8277 21.036-2.1473zm-10.444 25.246 0.08257 6.5886 9.2893-3.3897-9.3719-3.1989zm-8.8615-6.0049 21.242 7.5869 0.03975 3.1723-21.045 8.1455-0.03903-3.1149 6.2878-2.3184-0.10433-8.3255-6.3442-2.1745-0.03724-2.9714zm-0.28764 25.73 18.531 1.2979 0.46641-6.659 2.5634 0.17955-1.1344 16.196-2.5634-0.17954 0.46642-6.659-18.531-1.2979 0.20161-2.8784zm-1.1119 12.107 20.975 2.679-0.36375 2.848-20.975-2.679 0.36374-2.848zm9.0927 11.581c-2.6551-0.53457-4.8542-0.3403-6.5971 0.58278-1.7429 0.92307-2.8326 2.4682-3.2689 4.6355-0.43444 2.1578-0.02575 3.9949 1.2261 5.5112 1.2518 1.5162 3.2053 2.5416 5.8604 3.0762 2.6645 0.53643 4.8649 0.34733 6.6013-0.56729 1.7363-0.91467 2.8217-2.4509 3.2562-4.6088 0.43632-2.1673 0.03186-4.0132-1.2134-5.5379-1.2453-1.5247-3.2001-2.5553-5.8646-3.0917zm0.5865-2.9131c3.4244 0.68944 5.9255 2.0984 7.5031 4.227 1.5776 2.1285 2.0566 4.7315 1.4371 7.8088-0.61769 3.0679-2.0624 5.2738-4.3342 6.6176-2.2718 1.3437-5.1247 1.67-8.5585 0.97865-3.4245-0.68947-5.9264-2.0938-7.506-4.2129-1.5795-2.1192-2.0604-4.7127-1.4428-7.7806 0.61956-3.0773 2.0685-5.2921 4.3469-6.6443 2.2784-1.3522 5.1298-1.6836 8.5543-0.99414zm-15.277 21.033 20.183 6.3063-0.9376 3.0008-17.607 4.8462c-0.38536 0.11019-0.74389 0.1987-1.0756 0.26552-0.3317 0.0668-0.63514 0.10735-0.91032 0.12165l16.36 5.1118-0.81772 2.6171-20.183-6.3063 0.92903-2.9734 17.877-4.9875c0.27402-0.07481 0.55362-0.13534 0.83881-0.18159 0.28516-0.04626 0.58189-0.08139 0.8902-0.10537l-16.36-5.1118 0.81344-2.6034z" fill="#263f78"/><path id="text4682" d="m35.525 341.73 11.28-6.7025 1.4666 2.4682-11.304 6.7172c-1.7031 1.012-2.7382 2.1364-3.1054 3.3732-0.3672 1.2368-0.081469 2.645 0.85718 4.2247 0.92886 1.5632 2.0353 2.4838 3.3192 2.7617 1.2839 0.27793 2.7651-0.08175 4.4435-1.0791l11.304-6.7172 1.474 2.4806-11.28 6.7025c-2.4353 1.4471-4.651 1.9148-6.6471 1.4032-1.9961-0.5116-3.7177-1.985-5.1648-4.4204-1.3493-2.2708-1.7442-4.3405-1.1848-6.2092 0.55946-1.8687 2.0733-3.5364 4.5415-5.003zm4.6856 22.814 2.6402-1.8104 1.6643 2.4271-2.6402 1.8104-1.6643-2.4271zm9.7086 1.9837 1.7029 2.1855c-1.1902 0.96378-1.8396 2.1158-1.9479 3.4559-0.10839 1.3402 0.34623 2.6632 1.3638 3.9693 1.0058 1.2909 2.0702 2.0964 3.1932 2.4165 1.1229 0.32008 2.1524 0.11544 3.0886-0.61394 1.2758-0.99408 1.1577-3.1466-0.35433-6.4574-0.091674-0.1955-0.16147-0.34736-0.2094-0.4556-1.2287-2.6824-1.7965-4.6452-1.7036-5.8884 0.092925-1.2432 0.74711-2.3383 1.9626-3.2853 1.4872-1.1588 3.1054-1.5461 4.8546-1.1619 1.7491 0.38419 3.3266 1.4784 4.7325 3.2827 1.4352 1.842 2.0909 3.6606 1.967 5.4557-0.12396 1.7951-1.0067 3.3443-2.6482 4.6476l-1.6966-2.154c1.0584-0.94605 1.6197-1.993 1.6838-3.1409 0.064038-1.1479-0.36568-2.3145-1.2892-3.4997-0.86469-1.1097-1.7993-1.8071-2.8038-2.092-1.0046-0.28493-1.9107-0.11271-2.7185 0.51667-1.2909 1.0058-1.1829 3.1298 0.32404 6.3718 0.21948 0.48412 0.38809 0.85624 0.50585 1.1163 0.027727 0.05118 0.070616 0.14515 0.12867 0.28192 0.96962 2.132 1.4347 3.6865 1.3953 4.6636-0.030436 0.7395-0.22436 1.4366-0.58177 2.0912-0.35744 0.65459-0.86832 1.2407-1.5326 1.7583-1.608 1.2529-3.3361 1.6743-5.1843 1.2642-1.8482-0.41013-3.537-1.5966-5.0664-3.5594-1.5764-2.0232-2.2928-3.9976-2.1493-5.9233 0.14354-1.9256 1.138-3.6741 2.9832-5.2453zm7.7065 20.657 2.4012-2.1172 1.9463 2.2073-2.4012 2.1172-1.9463-2.2074zm30.189 4.3048-3.6256-3.3529-10.946 11.836 3.6256 3.3529c1.5528 1.436 3.1924 2.017 4.9188 1.743 1.7264-0.27404 3.5025-1.3982 5.3284-3.3726 1.7479-1.8901 2.6824-3.7111 2.8036-5.4632 0.12113-1.752-0.58065-3.333-2.1053-4.7431zm-18.433 8.4308 14.357-15.525 5.9127 5.4679c2.1641 2.0013 3.2228 4.1796 3.176 6.5348-0.046813 2.3552-1.1976 4.7519-3.4523 7.1901-2.3327 2.5224-4.7427 3.9339-7.23 4.2342-2.4873 0.30037-4.7989-0.53711-6.9349-2.5124l-5.8284-5.3899zm16.012 14.433 12.949-16.717 11.917 9.2301-1.6087 2.0769-9.6695-7.4896-3.8679 4.9937 8.9318 6.9182-1.512 1.9521-8.9318-6.9182-4.3426 5.6065 9.8625 7.639-1.6175 2.0883-12.11-9.3796zm24.248 3.7392 4.0445 2.6283c1.4043 0.9126 2.5314 1.3254 3.3811 1.2385 0.84973-0.08694 1.6292-0.6761 2.3384-1.7675 0.68313-1.0512 0.89647-1.9855 0.64004-2.8027-0.25648-0.81723-1.0307-1.6456-2.3227-2.4852l-4.225-2.7456-3.8564 5.9343zm-8.6574 8.0532 11.522-17.731 6.5241 4.2397c1.0592 0.68838 1.8318 1.2646 2.3178 1.7288 0.48589 0.46415 0.86729 0.9574 1.1442 1.4797 0.46668 0.86256 0.6423 1.8042 0.52689 2.8248-0.11547 1.0207-0.50954 2.0486-1.1822 3.0838-0.64145 0.98704-1.3998 1.7326-2.2752 2.2366-0.87541 0.50401-1.8282 0.74083-2.8585 0.71044-0.5922-0.01959-1.2104-0.16165-1.8545-0.42618-0.64418-0.26453-1.6243-0.82441-2.9403-1.6796l-3.6593-2.378-4.8576 7.475-2.4074-1.5645zm23.788 4.388 5.8035 3.1204 1.5361-9.7684-7.3395 6.648zm-9.5467 4.8419 16.93-14.906 2.7943 1.5024-3.0724 22.356-2.7437-1.4752 1.0188-6.6238-7.3334-3.943-4.9763 4.4959-2.6173-1.4072zm29.326-5.8531-2.8421 6.5755 4.5066 1.9479c1.6252 0.70245 2.8877 0.93537 3.7876 0.69874 0.89985-0.23661 1.6156-0.96986 2.1472-2.1997 0.49739-1.1508 0.53236-2.1001 0.10491-2.8479-0.42749-0.74776-1.4934-1.49-3.1976-2.2266l-4.5066-1.9479zm-1.5974-3.396 7.5242 3.2522c1.2211 0.5278 2.0965 0.96875 2.6264 1.3229 0.52982 0.35414 0.96999 0.75291 1.3205 1.1963 0.62332 0.80116 0.97525 1.6935 1.0558 2.6771 0.08052 0.98358-0.11273 2.0156-0.57974 3.0962-0.45187 1.0454-1.0622 1.8424-1.8311 2.3911-0.76889 0.54867-1.6881 0.84209-2.7576 0.88026 0.66435 0.53739 1.0486 1.1257 1.1529 1.7651 0.1042 0.63933-0.06236 1.5734-0.49967 2.8024l-1.16 3.2989c-0.25227 0.7042-0.3834 1.2548-0.3934 1.6519-0.01004 0.39707 0.09074 0.72474 0.30234 0.98301l-0.23352 0.54027-3.044-1.3157c-0.07133-0.51043 0.13138-1.4498 0.60811-2.818 0.01517-0.03514 0.02656-0.0615 0.03417-0.07906l0.93542-2.5984c0.47409-1.3381 0.56188-2.3011 0.26337-2.8888-0.29854-0.58777-1.379-1.2841-3.2414-2.0891l-4.2694-1.8454-3.5939 8.3149-2.6091-1.1277 8.3895-19.41zm14.763 28.708 5.9589-17.594-6.3225-2.1414 0.8243-2.4338 15.378 5.2083-0.8243 2.4338-6.3225-2.1414-5.9589 17.594-2.733-0.92562zm18.979-12.842-4.1872 17.523-2.5691-0.6139 4.9145-20.567 3.9932 0.9542 1.3362 16.953c0.04215 0.48239 0.06867 0.85526 0.07955 1.1186 0.01086 0.26335 0.01267 0.49255 0.00543 0.68761 0.15675-0.32661 0.30461-0.61598 0.4436-0.86813 0.13895-0.25214 0.27924-0.48921 0.42086-0.71121l9.0379-14.474 4.0072 0.95754-4.9145 20.567-2.7087-0.64725 4.1872-17.523c-0.13636 0.28231-0.28256 0.5647-0.4386 0.84719-0.15608 0.28251-0.31624 0.56157-0.48048 0.83718l-9.0485 14.457-2.6389-0.63057-1.4093-16.956c-0.03081-0.28286-0.04786-0.58213-0.05114-0.8978-0.0033-0.31564 0.00363-0.65346 0.02077-1.0134zm17.816 22.378 2.9195-20.943 14.929 2.0811-0.3627 2.6019-12.114-1.6887-0.87208 6.2559 11.19 1.5598-0.3409 2.4455-11.19-1.5598-0.97911 7.0237 12.355 1.7224-0.36468 2.6161-15.171-2.1148zm19.36 2.5155 1.0603-21.119 3.1399 0.15764 9.0939 15.836c0.20303 0.34558 0.37836 0.6706 0.52599 0.97506 0.1476 0.30447 0.26272 0.58813 0.34536 0.851l0.85947-17.119 2.7384 0.13749-1.0603 21.119-3.1112-0.15621-9.2982-16.062c-0.14095-0.24662-0.26945-0.50221-0.38553-0.76678-0.11608-0.26454-0.22427-0.54307-0.32457-0.83559l-0.85947 17.119-2.7241-0.13677zm26.635 0.63498-0.61364-18.566-6.6716 0.22051-0.08489-2.5682 16.227-0.53635 0.08489 2.5682-6.6716 0.22051 0.61364 18.566-2.8839 0.09532zm22.004-12.147c0.42594 2.6747 1.3756 4.6676 2.8491 5.9786 1.4734 1.3111 3.3018 1.7928 5.485 1.4451 2.1738-0.34617 3.7526-1.3704 4.7365-3.0728 0.98385-1.7024 1.2628-3.8909 0.8369-6.5656-0.42746-2.6841-1.3728-4.6801-2.836-5.988-1.4633-1.3078-3.2818-1.7886-5.4555-1.4425-2.1832 0.3477-3.7719 1.3711-4.766 3.0702-0.99408 1.6992-1.2774 3.8908-0.84995 6.575zm-2.9346 0.46733c-0.54936-3.4497-0.10208-6.2852 1.3418-8.5067 1.4439-2.2214 3.7159-3.579 6.8159-4.0726 3.0905-0.49214 5.662 0.09169 7.7143 1.7515 2.0523 1.6598 3.3538 4.2193 3.9047 7.6784 0.54934 3.4497 0.10679 6.2845-1.3276 8.5044-1.4345 2.2199-3.697 3.576-6.7875 4.0681-3.1 0.49367-5.6813-0.09101-7.7438-1.754-2.0625-1.663-3.3684-4.2194-3.9178-7.6691zm25.722 6.2241-5.1702-20.504 13.767-3.4713 0.64934 2.5752-10.983 2.7694 1.5514 6.1525 9.5907-2.4184 0.63179 2.5056-9.5907 2.4184 2.3376 9.2706-2.784 0.70199zm36.678-19.94 2.5961-1.0081c0.81589 2.4449 0.73958 4.6741-0.22894 6.6877-0.96855 2.0136-2.6572 3.4881-5.0659 4.4234-2.7745 1.0774-5.3163 0.97614-7.6254-0.30374-2.309-1.2799-4.1131-3.5926-5.4122-6.938-1.1986-3.0868-1.3252-5.8583-0.37976-8.3147 0.94547-2.4564 2.8188-4.2284 5.6201-5.3162 2.2303-0.86604 4.2804-0.99992 6.1502-0.40165 1.8698 0.59833 3.3025 1.8489 4.2981 3.7517l-2.6229 1.0185c-0.75559-1.2055-1.7377-1.9765-2.9464-2.3131-1.2087-0.33655-2.5624-0.21384-4.0612 0.36813-1.9984 0.77602-3.2765 2.0782-3.8344 3.9067-0.55789 1.8285-0.34145 4.0185 0.64933 6.57 0.93535 2.4088 2.2586 4.1176 3.9696 5.1267 1.711 1.009 3.5122 1.1463 5.4036 0.41189 1.6147-0.62703 2.7425-1.6424 3.3832-3.0462 0.64067-1.4038 0.67625-2.9447 0.10674-4.6229zm6.3176-5.7404c1.2207 2.4177 2.7325 4.0264 4.5354 4.8261 1.8029 0.79971 3.691 0.70134 5.6645-0.2951 1.9649-0.99211 3.1565-2.4488 3.5748-4.37 0.41831-1.9212 0.01709-4.0907-1.2036-6.5084-1.2251-2.4262-2.7337-4.0392-4.5258-4.839-1.7922-0.79972-3.6707-0.70353-5.6356 0.28856-1.9734 0.99646-3.1747 2.4553-3.6037 4.3766-0.42902 1.9213-0.031 4.095 1.194 6.5212zm-2.6526 1.3394c-1.5744-3.1182-2.0125-5.9552-1.3142-8.511 0.69831-2.5558 2.4485-4.541 5.2506-5.9559 2.7936-1.4105 5.4206-1.638 7.8811-0.68258 2.4605 0.9555 4.4801 2.9966 6.0589 6.1234 1.5744 3.1182 2.0168 5.9531 1.327 8.5045-0.68978 2.5515-2.4314 4.5324-5.225 5.943-2.8021 1.4148-5.4388 1.6446-7.91 0.68911-2.4712-0.95543-4.494-2.9923-6.0684-6.1105zm18.936-18.385 9.7478 15.151-2.2214 1.4292-11.441-17.783 3.4528-2.2214 13.16 10.771c0.37732 0.30349 0.66477 0.54245 0.86236 0.71689 0.19758 0.17446 0.36425 0.33181 0.50001 0.47206-0.12721-0.33921-0.2337-0.64623-0.31946-0.92107-0.08579-0.27482-0.15978-0.54017-0.22196-0.79605l-4.1901-16.542 3.4649-2.2292 11.441 17.783-2.3421 1.5068-9.7478-15.151c0.10935 0.29383 0.21196 0.59482 0.30782 0.90297 0.09584 0.3082 0.18638 0.61696 0.2716 0.92627l4.1702 16.538-2.2818 1.468-13.213-10.72c-0.22547-0.17356-0.45325-0.36841-0.68334-0.58456-0.23008-0.21611-0.46909-0.45494-0.71702-0.71651zm19.291-12.965 11.313 14.021-2.0557 1.6586-13.278-16.457 3.1953-2.5781 14.237 9.3011c0.40762 0.26138 0.71899 0.46821 0.93411 0.62051 0.21511 0.15232 0.39766 0.29094 0.54765 0.41585-0.16277-0.32365-0.3015-0.61752-0.41618-0.8816-0.1147-0.26407-0.21665-0.51998-0.30586-0.76773l-5.9359-15.999 3.2065-2.5871 13.278 16.457-2.1674 1.7488-11.313-14.021c0.14016 0.28043 0.27438 0.56872 0.40266 0.86485 0.12827 0.29618 0.25131 0.59347 0.36914 0.89189l5.9157 15.997-2.1116 1.7037-14.284-9.2449c-0.24274-0.14844-0.49006-0.3178-0.74196-0.50808-0.25188-0.19026-0.51507-0.40215-0.78957-0.63569zm28.604-0.42574-14.779-15.124 10.781-10.535 1.836 1.8789-8.7478 8.5481 4.4145 4.5177 8.0804-7.8959 1.7257 1.766-8.0804 7.8959 4.9563 5.0721 8.9224-8.7186 1.8461 1.8892-10.955 10.705zm1.5509-28.139 5.4213 4.6823 3.2091-3.7156c1.1573-1.3399 1.7579-2.4746 1.8019-3.404 0.04398-0.92939-0.44103-1.832-1.455-2.7078-0.9488-0.81946-1.844-1.1374-2.6855-0.9537-0.84151 0.1837-1.8691 0.9781-3.0826 2.3832l-3.2091 3.7156zm-3.7187 0.50607 5.3579-6.2035c0.86953-1.0067 1.5526-1.7098 2.0493-2.1091 0.49666-0.39932 1.009-0.69972 1.5371-0.90122 0.95116-0.35452 1.908-0.42281 2.8705-0.20485 0.9625 0.21801 1.8892 0.71171 2.78 1.4811 0.8619 0.74443 1.4393 1.5656 1.7323 2.4636 0.29298 0.898 0.29739 1.8629 0.01324 2.8947 0.7118-0.47273 1.3883-0.663 2.0295-0.57082 0.64117 0.09223 1.4824 0.53111 2.5238 1.3167l2.7995 2.0955c0.5962 0.45173 1.0822 0.74188 1.458 0.87044 0.3758 0.12859 0.71861 0.13066 1.0284 0.00621l0.44543 0.38472-2.1676 2.5096c-0.50833-0.08495-1.3437-0.55989-2.5062-1.4248-0.02898-0.02501-0.05071-0.04378-0.06519-0.0563l-2.1985-1.6712c-1.1345-0.85338-2.0269-1.2258-2.6771-1.1172-0.65024 0.10864-1.6384 0.9307-2.9646 2.4662l-3.0402 3.52 6.8553 5.9209-1.8579 2.1511-16.003-13.822zm31.365-18.262 1.6251-2.2617c2.0181 1.6033 3.1709 3.5128 3.4584 5.7287 0.28749 2.2159-0.32266 4.373-1.8304 6.4715-1.7368 2.4171-3.9218 3.7196-6.5551 3.9075-2.6333 0.18788-5.4073-0.76526-8.3218-2.8594-2.6891-1.9322-4.3079-4.1854-4.8564-6.7597-0.54848-2.5742 0.05402-5.0816 1.8075-7.522 1.3961-1.943 3.0408-3.1741 4.9341-3.6934 1.8933-0.51922 3.7764-0.25334 5.6491 0.79766l-1.6418 2.285c-1.2911-0.59769-2.5349-0.7077-3.7313-0.33003-1.1965 0.37771-2.2638 1.2194-3.202 2.5251-1.2509 1.741-1.6111 3.5297-1.0806 5.3663 0.53055 1.8366 1.9072 3.5535 4.13 5.1506 2.0985 1.5078 4.1399 2.2175 6.1244 2.129 1.9844-0.08845 3.5686-0.95651 4.7525-2.6042 1.0108-1.4067 1.4015-2.8731 1.1721-4.399-0.22937-1.5259-1.0406-2.8365-2.4338-3.9318zm10.199-1.2191-18.191-10.781 7.6852-12.967 2.26 1.3394-6.236 10.522 5.4338 3.2204 5.7602-9.719 2.1241 1.2589-5.7602 9.719 6.1006 3.6157 6.3604-10.732 2.2723 1.3467-7.8096 13.177z" fill="#263f78"/></svg>
