<svg class="m-nav__logo-svg" id="mmcLogo" xmlns="http://www.w3.org/2000/svg" viewBox="0 0 185 86" width="185" height="86" role="img">
    <title>Marine Mammal Center logo</title>
    <path d="M68.2 48c.2.1.5.2.6.4.2.2.3.4.4.7.1.3.1.6.1 1v6.5H71v-6.5c0-.6-.1-1.2-.2-1.6-.1-.5-.4-.8-.6-1.1-.3-.3-.6-.5-1-.6-.4-.1-.8-.2-1.3-.2-.6 0-1.2.1-1.6.4-.5.2-.9.6-1.3 1v-5.3h-1.7v14H65v-7c.2-.5.6-.9 1-1.1.4-.3.9-.4 1.4-.4.2-.3.5-.3.8-.2zM78.7 56.5c.4-.1.7-.2 1-.4.3-.2.6-.4.8-.6.2-.2.4-.5.6-.7l-1-.8c-.3.4-.7.7-1.1 1-.4.2-.9.4-1.5.4-.4 0-.9-.1-1.2-.3-.4-.2-.7-.4-.9-.7-.3-.3-.4-.6-.6-1-.1-.4-.2-.8-.2-1.3h6.7v-.8c0-.7-.1-1.3-.2-1.9s-.4-1.1-.7-1.5c-.3-.4-.8-.8-1.3-1-.5-.2-1.1-.4-1.8-.4-.6 0-1.1.1-1.6.3-.5.2-1 .6-1.4 1-.4.4-.7 1-1 1.6-.2.6-.4 1.3-.4 2.2v.4c0 .7.1 1.3.3 1.9.2.6.5 1.1.9 1.5.4.4.9.8 1.4 1 .6.2 1.2.4 1.9.4.5-.1 1-.1 1.3-.3zm-3.8-7c.1-.4.3-.6.6-.9.2-.2.5-.4.8-.5.3-.1.6-.2.9-.2.4 0 .8.1 1.1.2.3.2.5.4.7.6.2.3.3.5.4.9.1.3.1.6.2 1v.1h-4.9c0-.5.1-.9.2-1.2zM89.9 51.4l-.2-5.6L94 56.5h1.4l4.3-10.7-.1 5.6v5.1h1.7V43.3H99l-4.3 10.8-4.3-10.8h-2.3v13.2h1.8zM108.8 56c.2-.1.4-.3.5-.5 0 .2.1.4.1.6 0 .2.1.3.1.5h1.8v-.1c-.1-.3-.2-.6-.3-1-.1-.4-.1-.7-.1-1.1v-4.6c0-.6-.1-1-.3-1.4-.2-.4-.4-.8-.8-1-.3-.3-.7-.5-1.2-.6-.5-.1-.9-.2-1.5-.2s-1.1.1-1.6.3c-.5.2-.9.4-1.2.7-.3.3-.6.6-.8.9-.2.3-.3.7-.3 1h1.7c0-.2.1-.4.2-.6.1-.2.2-.4.4-.5.2-.1.4-.3.7-.3.3-.1.5-.1.9-.1.7 0 1.2.2 1.6.5.4.3.5.8.5 1.4v.8h-1.7c-.7 0-1.3.1-1.8.2s-1 .3-1.4.6c-.4.3-.7.6-.9 1-.2.4-.3.9-.3 1.4 0 .4.1.8.2 1.1.2.4.4.7.7.9.3.3.6.5 1 .6.4.2.9.2 1.4.2.3 0 .6 0 .9-.1.3-.1.5-.2.8-.3.3-.1.5-.2.7-.3zm-2-.8c-.3 0-.6 0-.8-.1-.2-.1-.4-.2-.6-.4-.2-.1-.3-.3-.4-.5-.1-.2-.1-.4-.1-.7 0-.6.3-1.1.8-1.4.5-.3 1.3-.5 2.2-.5h1.4v2c-.1.2-.2.4-.4.5-.2.2-.4.3-.6.5s-.5.2-.7.3c-.2.3-.5.3-.8.3zM117.9 46.6c-.1 0-.2-.1-.3-.1h-.4c-.5 0-1 .1-1.4.4-.4.2-.7.6-1 1v-1.1h-1.6v9.9h1.7v-7c.2-.4.5-.8.8-1 .4-.3.8-.4 1.4-.4h.8v-1.7zM119.8 46.7h1.7v9.9h-1.7zM120.7 43.1c-.3 0-.6.1-.7.3-.2.2-.3.4-.3.7 0 .3.1.5.3.7.2.2.4.3.7.3.3 0 .6-.1.7-.3.2-.2.3-.4.3-.7 0-.3-.1-.5-.3-.7-.1-.2-.4-.3-.7-.3zM128.1 47.9c.3 0 .6 0 .9.1.2.1.5.2.6.4.2.2.3.4.4.7.1.3.1.6.1 1v6.5h1.7v-6.5c0-.6-.1-1.2-.2-1.6-.1-.5-.4-.8-.6-1.1s-.6-.5-1-.6c-.4-.1-.8-.2-1.3-.2-.6 0-1.2.1-1.7.4-.5.3-.9.6-1.3 1l-.1-1.2H124v9.9h1.7v-7c.2-.5.6-.9 1-1.1.4-.5.9-.7 1.4-.7zM140.6 56.1c.3-.2.6-.4.8-.6.2-.2.4-.5.6-.7l-1-.8c-.3.4-.7.7-1.1 1-.4.2-.9.4-1.5.4-.4 0-.9-.1-1.2-.3-.4-.2-.7-.4-.9-.7-.3-.3-.4-.6-.6-1-.1-.4-.2-.8-.2-1.3h6.7v-.8c0-.7-.1-1.3-.2-1.9-.2-.6-.4-1.1-.7-1.5-.3-.4-.8-.8-1.3-1-.5-.2-1.1-.4-1.8-.4-.6 0-1.1.1-1.6.3-.5.2-1 .6-1.4 1-.4.4-.7 1-1 1.6-.2.6-.4 1.3-.4 2.2v.4c0 .7.1 1.3.3 1.9.2.6.5 1.1.9 1.5.4.4.9.8 1.4 1 .6.2 1.2.4 1.9.4.5 0 .9-.1 1.3-.2.3-.2.7-.3 1-.5zm-4.9-6.6c.1-.4.3-.6.6-.9.2-.2.5-.4.8-.5.3-.1.6-.2.9-.2.4 0 .8.1 1.1.2.3.2.5.4.7.6.2.3.3.5.4.9.1.3.1.6.2 1v.1h-4.9c0-.5.1-.9.2-1.2zM40.5 45.9c-.5-1.3-1.1-2.8-1.6-4.3-.8-2.3-1.7-4.7-2.7-7.2-.9-2.5-1.9-5.2-3-7.8-2.4-6.1-4.7-12.7-6.4-17.6-.2-.5-.3-1-.5-1.4-.8-2.2-1.4-3.9-1.8-4.8-.3-.8-.7-1.4-1.1-1.8S22.5.3 22 .3c-.4 0-.7.2-1 .4-.2.2-.4.4-.6.7-.3.4-.6.9-.8 1.4-1.3 3.1-4.2 10.2-4.9 12.3-.5 1.5-.5 2.7.1 3.3.3.3.7.4 1.2.4 1.2-.1 3-.9 4.7-1.4.2-.1.4-.1.6-.1.4-.1.7-.1 1.1-.2h.5c.5 0 .9.1 1.3.4 1 .7 1.7 1.7 2.2 2.8 1.2 2.8 1 6.4.8 8.5 0 .4-.1.8-.1 1.1-.1.6-.1 1.3-.2 1.9-.6 4.3-2 7.9-5 12.6 0 .2 0 .4.1.6 0 .1.1.2.2.3.9 1.5 3.4 3.5 3.9 4 .8.7 2 1.8 3.2 3 1.2 1.2 2.5 2.5 3.5 3.8 1.3 1.6 2.4 3.1 3.2 4.6.8 1.5 1.4 2.8 1.8 4.1.6 1.9-.1 3.4-1.3 4.3-.3.2-.6.5-1 .6-.9.5-2 .7-3 .7h-.6c-.5 0-1 0-1.4-.1-1.3-.1-2.5-.3-3.5-.6-1.4-.4-2.6-.9-4-1.6-1.9-.9-4.1-2.7-5.3-3.9-.6-.6-.6-1.1-.3-1.4l.1-.1c.1-.1.3-.2.5-.2.3 0 .7.1 1.1.6.1.1.2.2.5.4.6.5 1.6 1.3 2.7 2.1.4.3.8.5 1.2.7 2.3 1.2 4.5 1.8 5.7 2 .7.1 1.9.3 2.9.3.6 0 1.3-.1 1.8-.2.3-.1.5-.2.8-.3.8-.3 1.6-.9 1.7-1.9.1-.5 0-1-.3-1.7s-.5-1.4-.8-1.9c-.5-1.1-1-1.9-1.7-2.9-.3-.5-.7-1-1.1-1.5-2-2.8-4.5-5.1-7-7.3-.4-.3-.8-.7-1.3-1.2-.2-.1-.3-.3-.5-.4-.7-.6-1.3-1.2-1.8-1.7-2.2-2-2.6-4.4-2.5-7.2 0-.2 0-.5.1-.7.1-.7.2-1.4.3-2.2.7-4.5 2.6-7.1 4-10.1.4-1 .8-2 1.1-3.1.7-3 .2-5.6-1.2-5.7h-.3c-1.2.2-2 1.1-2.9 1.2h-.4c-1.1.2-1.8.2-2.4.2-1 .1-1.8.3-2.6.6-.5.2-1 .5-1.4.9-2 1.6-3.2 4.2-3.7 6.9-.3 1.4-.8 2.8-1.3 4.3-.9 2.2-1.9 4.6-3 7.1s-2.2 5.1-3.2 7.8c-.2.6-.4 1.3-.7 2.1-.4 1.5-.9 3.2-1.2 4.7-.1.8-.3 1.5-.3 2.2-.3 2.4-.4 4.8-.2 7C.8 73.5 5.3 81 14.8 84c2.8.9 5.5 1.3 8 1.3h1.1c1.1-.1 2.1-.3 3.1-.5.7-.1 1.3-.3 1.9-.5 6-1.8 10.6-6.4 13.2-12.4 2.8-6.5 2.4-13.1.6-19.6-.6-2.1-1.3-4.3-2.2-6.4zM19.8 22.8c.2 0 .5 0 .5.1.1.1.1.4.1.6 0 .3-.1.5-.4.9l-.2.2c-.1.1-.3.2-.4.3-.1 0-.1.1-.2.1 0 0-.1 0-.1.1-.1-.1-.3 0-.4-.1l-.1-.1c-.1-.1-.1-.2-.1-.3v-.1-.2c0-.3.1-.6.3-1 .1-.2.3-.3.4-.4.2 0 .4-.1.6-.1zM57.4 70.1l-4.3-10.8h-2.3v13.2h1.8v-5.1l-.2-5.6 4.4 10.7h1.3l4.4-10.7-.2 5.6v5.1H64V59.3h-2.2zM73.9 70.4v-4.6c0-.6-.1-1-.3-1.4-.2-.4-.4-.8-.8-1-.3-.3-.7-.5-1.2-.6-.5-.1-.9-.2-1.5-.2s-1.1.1-1.6.3c-.5.2-.9.4-1.2.7-.3.3-.6.6-.8.9-.2.3-.3.7-.3 1H68c0-.2.1-.4.2-.6.1-.2.2-.4.4-.5.2-.1.4-.3.7-.3.3-.1.5-.1.9-.1.7 0 1.2.2 1.6.5.4.3.5.8.5 1.4v.8h-1.7c-.7 0-1.3.1-1.8.2s-1 .3-1.4.6c-.4.3-.7.6-.9 1-.2.4-.3.9-.3 1.4 0 .4.1.8.2 1.1.2.4.4.7.7.9.3.3.6.5 1 .6.4.2.9.2 1.4.2.3 0 .6 0 .9-.1.3-.1.5-.2.8-.3.2-.1.4-.2.6-.4.2-.1.4-.3.5-.5 0 .2.1.4.1.6 0 .2.1.3.1.5h1.8v-.1c-.1-.3-.2-.6-.3-1s-.1-.7-.1-1zm-1.7-.6c-.1.2-.2.4-.4.5-.2.2-.4.3-.6.5-.2.1-.5.2-.7.3-.3.1-.6.1-.9.1-.3 0-.6 0-.8-.1-.2-.1-.4-.2-.6-.4-.2-.1-.3-.3-.4-.5-.1-.2-.1-.4-.1-.7 0-.6.3-1.1.8-1.4.5-.3 1.3-.5 2.2-.5h1.4v2.2zM89.1 63.3c-.3-.3-.6-.5-1-.6-.4-.1-.9-.2-1.4-.2-.7 0-1.3.1-1.9.4-.5.3-1 .7-1.3 1.1-.3-.6-.6-1-1.1-1.2-.5-.3-1.1-.4-1.7-.4-.6 0-1.2.1-1.7.3-.5.2-.9.5-1.2.9v-1.1h-1.6v9.9h1.7v-7.2c.2-.4.5-.8.8-1 .4-.3.8-.4 1.4-.4.3 0 .6 0 .9.1.3.1.5.2.7.4.2.2.3.4.4.7.1.3.2.6.2 1v6.5H84V66c0-.3.1-.6.2-.8.1-.3.3-.5.5-.7.2-.2.4-.3.7-.4.3-.1.6-.2.9-.2.3 0 .6 0 .9.1.3.1.5.2.7.3.2.2.3.4.4.7.1.3.2.6.2 1v6.5H90V66c0-.6-.1-1.2-.2-1.6-.2-.4-.4-.8-.7-1.1zM105.1 63.3c-.3-.3-.6-.5-1-.6-.4-.1-.9-.2-1.4-.2-.7 0-1.3.1-1.9.4-.5.3-1 .7-1.3 1.1-.3-.6-.6-1-1.1-1.2-.5-.3-1.1-.4-1.7-.4-.6 0-1.2.1-1.7.3-.5.2-.9.5-1.2.9v-1.1h-1.6v9.9h1.7v-7.2c.2-.4.5-.8.8-1 .4-.3.8-.4 1.4-.4.3 0 .6 0 .9.1.3.1.5.2.7.4.2.2.3.4.4.7.1.3.2.6.2 1v6.5h1.7V66c0-.3.1-.6.2-.8.1-.3.3-.5.5-.7.2-.2.4-.3.7-.4.3-.1.6-.2.9-.2.3 0 .6 0 .9.1.3.1.5.2.7.3.2.2.3.4.4.7.1.3.2.6.2 1v6.5h1.7V66c0-.6-.1-1.2-.2-1.6-.4-.4-.6-.8-.9-1.1zM115.7 70.4v-4.6c0-.6-.1-1-.3-1.4-.2-.4-.4-.8-.8-1-.3-.3-.7-.5-1.2-.6s-.9-.2-1.5-.2-1.1.1-1.6.3c-.5.2-.9.4-1.2.7-.3.3-.6.6-.8.9-.2.3-.3.7-.3 1h1.7c0-.2.1-.4.2-.6.1-.2.2-.4.4-.5.2-.1.4-.3.7-.3.3-.1.6-.1.9-.1.7 0 1.2.2 1.6.5.4.3.5.8.5 1.4v.8h-1.7c-.7 0-1.3.1-1.8.2s-1 .3-1.4.6c-.4.3-.7.6-.9 1-.2.4-.3.9-.3 1.4 0 .4.1.8.2 1.1.2.4.4.7.7.9.3.3.6.5 1 .6.4.2.9.2 1.4.2.3 0 .6 0 .9-.1.3-.1.5-.2.8-.3.2-.1.4-.2.6-.4.2-.1.4-.3.5-.5 0 .2.1.4.1.6 0 .2.1.3.1.5h1.8v-.1c-.1-.3-.2-.6-.3-1s0-.7 0-1zm-1.7-.6c-.1.2-.2.4-.4.5-.2.2-.4.3-.6.5-.2.1-.5.2-.7.3-.3.1-.6.1-.9.1-.3 0-.6 0-.8-.1-.2-.1-.4-.2-.6-.4-.2-.1-.3-.3-.4-.5-.1-.2-.1-.4-.1-.7 0-.6.3-1.1.8-1.4.5-.3 1.3-.5 2.2-.5h1.4v2.2zM117.9 58.5h1.7v14h-1.7zM128.5 63.3c.2-.6.4-1.1.7-1.5.3-.4.7-.7 1.1-1 .4-.2 1-.3 1.6-.3.5 0 .9.1 1.3.2s.7.3.9.6l.6.9.3 1.2h1.8c-.1-.7-.2-1.3-.5-1.8-.2-.5-.6-1-1-1.4-.4-.4-.9-.7-1.5-.9-.6-.2-1.2-.3-2-.3s-1.6.1-2.2.4c-.7.3-1.2.7-1.7 1.2s-.8 1.2-1.1 1.9c-.2.8-.4 1.6-.4 2.5v1.3c0 .9.1 1.8.4 2.5.2.8.6 1.4 1 1.9.5.5 1 1 1.6 1.2.6.3 1.3.4 2.1.4s1.5-.1 2.1-.3c.6-.2 1.1-.5 1.5-.9.4-.4.7-.9 1-1.4.2-.5.4-1.1.5-1.7H135c-.1.5-.2.9-.3 1.3-.1.4-.3.7-.6.9-.3.3-.6.4-1 .6-.4.1-.9.2-1.4.2-.6 0-1.1-.1-1.5-.4-.4-.2-.8-.6-1.1-1-.3-.4-.5-.9-.6-1.5-.1-.6-.2-1.2-.2-1.8V65c0-.5.1-1.1.2-1.7zM145.8 63.9c-.3-.4-.8-.8-1.3-1-.5-.2-1.1-.4-1.8-.4-.6 0-1.1.1-1.6.3-.5.2-1 .6-1.4 1-.4.4-.7 1-1 1.6-.2.6-.4 1.3-.4 2.2v.4c0 .7.1 1.3.3 1.9.2.6.5 1.1.9 1.5.4.4.9.8 1.4 1 .6.2 1.2.4 1.9.4.5 0 .9-.1 1.3-.2s.7-.2 1-.4c.3-.2.6-.4.8-.6.2-.2.4-.5.6-.7l-1-.8c-.3.4-.7.7-1.1 1s-.9.4-1.5.4c-.4 0-.9-.1-1.2-.3-.4-.2-.7-.4-.9-.7-.3-.3-.4-.6-.6-1-.1-.4-.2-.8-.2-1.3h6.7v-.8c0-.7-.1-1.3-.2-1.9-.1-.7-.3-1.2-.7-1.6zm-.7 2.8h-4.9c.1-.5.2-.9.3-1.2.1-.4.3-.6.6-.9.2-.2.5-.4.8-.5.3-.1.6-.2.9-.2.4 0 .8.1 1.1.2.3.2.5.4.7.6.2.3.3.5.4.9.1.3.1.6.2 1v.1zM155.7 63.3c-.3-.3-.6-.5-1-.6-.4-.1-.8-.2-1.3-.2-.6 0-1.2.1-1.7.4-.5.3-.9.6-1.3 1l-.1-1.2h-1.6v9.9h1.7v-7c.2-.5.6-.9 1-1.1.4-.3.9-.4 1.4-.4.3 0 .6 0 .9.1.2.1.5.2.6.4.2.2.3.4.4.7.1.3.1.6.1 1v6.5h1.7v-6.5c0-.6-.1-1.2-.2-1.6-.2-.7-.4-1.1-.6-1.4zM162.4 71.3h-.4c-.1 0-.2-.1-.3-.2-.1-.1-.2-.2-.2-.4-.1-.2-.1-.4-.1-.6V64h1.8v-1.3h-1.8v-2.4h-1.7v2.4h-1.8V64h1.8v6.1c0 .5.1.9.2 1.2.1.3.3.6.5.8.2.2.4.4.7.4.3.1.6.1.9.1.3 0 .6 0 .8-.1.2 0 .4-.1.5-.1V71c-.1 0-.2 0-.4.1-.2.2-.3.2-.5.2zM171.9 63.9c-.3-.4-.8-.8-1.3-1-.5-.2-1.1-.4-1.8-.4-.6 0-1.1.1-1.6.3-.5.2-1 .6-1.4 1-.4.4-.7 1-1 1.6-.2.6-.4 1.3-.4 2.2v.4c0 .7.1 1.3.3 1.9s.5 1.1.9 1.5c.4.4.9.8 1.4 1 .6.2 1.2.4 1.9.4.5 0 .9-.1 1.3-.2s.7-.2 1-.4c.3-.2.6-.4.8-.6.2-.2.4-.5.6-.7l-1-.8c-.3.4-.7.7-1.1 1-.4.2-.9.4-1.5.4-.4 0-.9-.1-1.2-.3-.4-.2-.7-.4-.9-.7-.3-.3-.4-.6-.6-1-.1-.4-.2-.8-.2-1.3h6.7v-.8c0-.7-.1-1.3-.2-1.9-.1-.7-.3-1.2-.7-1.6zm-.7 2.8h-4.9c.1-.5.2-.9.3-1.2.1-.4.3-.6.6-.9.2-.2.5-.4.8-.5.3-.1.6-.2.9-.2.4 0 .8.1 1.1.2.3.2.5.4.7.6.2.3.3.5.4.9.1.3.1.6.2 1v.1zM178.9 62.5c-.5 0-1 .1-1.4.4-.4.2-.7.6-1 1v-1.1h-1.6v9.9h1.7v-7c.2-.4.5-.8.8-1 .4-.3.8-.4 1.4-.4h.8v-1.6c-.1 0-.2-.1-.3-.1-.2-.1-.3-.1-.4-.1zM184.7 70c-.1-.2-.1-.4-.2-.6-.1-.2-.2-.3-.4-.5-.1-.1-.3-.3-.5-.4-.2-.1-.4-.2-.5-.2-.2-.1-.4-.1-.6-.1-.2 0-.4 0-.6.1-.2.1-.4.1-.5.2-.2.1-.3.2-.5.4-.1.1-.3.3-.4.5-.1.2-.2.4-.2.6-.1.2-.1.4-.1.7 0 .2 0 .4.1.7s.1.4.2.6c.1.2.2.3.4.5.1.1.3.3.5.4.2.1.4.2.5.2.2.1.4.1.6.1.3 0 .6-.1.9-.2.3-.1.5-.3.7-.5.2-.2.4-.5.5-.8.1-.3.2-.6.2-1 0-.3-.1-.5-.1-.7zm-.4 1.2c0 .2-.1.3-.2.5s-.2.3-.3.4c-.1.1-.2.2-.4.3-.1.1-.3.2-.5.2s-.3.1-.5.1c-.3 0-.5-.1-.7-.2-.2-.1-.4-.2-.6-.4-.2-.2-.3-.4-.4-.6-.1-.2-.1-.5-.1-.8 0-.3 0-.5.1-.8.1-.2.2-.5.4-.6.2-.2.4-.3.6-.4.2-.1.5-.2.7-.2.2 0 .3 0 .5.1.2 0 .3.1.5.2.1.1.3.2.4.3.1.1.2.3.3.4.1.1.1.3.2.5 0 .2.1.4.1.5 0 .1-.1.3-.1.5z"></path>
    <path d="M183.5 71.5v-.2c0-.2 0-.3-.1-.4-.1-.1-.1-.2-.3-.3.1-.1.2-.1.3-.2.1-.1.1-.2.1-.3 0-.1 0-.3-.1-.4 0-.1-.1-.2-.2-.3-.1-.1-.2-.1-.3-.2-.1 0-.3-.1-.4-.1h-.9V72h.5v-1.1h.5c.2 0 .3 0 .4.1.1.1.1.2.1.3v.6h.5v-.1-.2c-.1.1-.1 0-.1-.1zm-.6-1.3l-.1.1s-.1.1-.2.1H182v-.8h.7c.1 0 .1 0 .2.1l.1.1v.2c0 .1 0 .2-.1.2zM55.3 56.5h1.8V44.7h4.2v-1.4H51.1v1.4h4.2z"></path>
</svg>